<?xml version="1.0" encoding="iso-8859-1"?>
<!-- Generator: Adobe Illustrator 19.0.0, SVG Export Plug-In . SVG Version: 6.00 Build 0)  -->
<svg version="1.1" id="Layer_1" xmlns="http://www.w3.org/2000/svg" xmlns:xlink="http://www.w3.org/1999/xlink" x="0px" y="0px"
	 viewBox="0 0 512 512" style="enable-background:new 0 0 512 512;" xml:space="preserve">
<path style="fill:#EB86BF;" d="M512,256.006C512,397.402,397.394,512.004,256.004,512C114.606,512.004,0,397.402,0,256.006
	C-0.007,114.61,114.606,0,256.004,0C397.394,0,512,114.614,512,256.006z"/>
<path style="fill:#D670AD;" d="M512,256.006c0-0.955-0.026-1.904-0.036-2.857c-2.781-2.947-140.034-138.051-141.339-138.542
	l-59.732-22.4c-0.865-0.318-1.753-0.441-2.625-0.438v-0.036H203.734v0.036c-0.873-0.001-1.76,0.122-2.625,0.437l-59.734,22.4
	c-1.406,0.529-2.625,1.474-3.485,2.706l-59.734,85.12c-2.158,3.069-1.698,7.258,1.066,9.792l1.167,1.069
	c0.117,0.123,34.612,33.716,41.021,39.915c0.381,1.223,44.992,46.139,44.992,46.139V412.8c0,2.443,1.249,4.508,3.062,5.871
	c0.425,0.565,80.125,81.275,93.792,93.221C401.292,508.057,512,394.976,512,256.006z"/>
<path style="fill:#F4F6F9;" d="M433.844,202.432l-59.733-85.119c-0.861-1.232-2.078-2.177-3.486-2.705l-59.733-22.4
	c-0.864-0.318-1.751-0.441-2.625-0.439v-0.035H203.733v0.036c-0.873-0.001-1.759,0.121-2.625,0.437l-59.733,22.4
	c-1.407,0.529-2.625,1.473-3.486,2.705l-59.733,85.119c-2.158,3.07-1.699,7.259,1.065,9.793l43.211,39.579
	c1.524,1.396,3.558,2.067,5.607,1.939c2.057-0.154,3.952-1.152,5.25-2.756l33.111-41.041V412.8c0,4.124,3.34,7.467,7.467,7.467
	h164.267c4.127,0,7.467-3.343,7.467-7.467V209.829l33.461,41.18c1.306,1.597,3.209,2.589,5.265,2.738
	c2.064,0.128,4.083-0.565,5.6-1.962l42.875-39.579C435.543,209.668,435.996,205.49,433.844,202.432z M294.908,106.667
	c-7.185,9.649-20.215,22.4-38.908,22.4c-18.574,0-31.633-12.751-38.857-22.4H294.908z M385.639,235.42l-41.709-51.33
	c-2.005-2.458-5.315-3.383-8.298-2.326c-2.975,1.057-4.965,3.875-4.965,7.037v216.533H181.334V188.8c0-3.165-1.998-5.986-4.98-7.04
	c-2.99-1.046-6.307-0.106-8.298,2.352l-41.395,51.311l-32.513-29.782l54.637-77.86l51.516-19.319
	C207.345,120.083,225.545,144,256.002,144s48.657-23.917,55.701-35.539l51.516,19.319l54.651,77.883L385.639,235.42z"/>
<g>
</g>
<g>
</g>
<g>
</g>
<g>
</g>
<g>
</g>
<g>
</g>
<g>
</g>
<g>
</g>
<g>
</g>
<g>
</g>
<g>
</g>
<g>
</g>
<g>
</g>
<g>
</g>
<g>
</g>
</svg>
