<?xml version="1.0" encoding="iso-8859-1"?>
<!-- Generator: Adobe Illustrator 19.0.0, SVG Export Plug-In . SVG Version: 6.00 Build 0)  -->
<svg version="1.1" id="Layer_1" xmlns="http://www.w3.org/2000/svg" xmlns:xlink="http://www.w3.org/1999/xlink" x="0px" y="0px"
	 viewBox="0 0 512.001 512.001" style="enable-background:new 0 0 512.001 512.001;" xml:space="preserve">
<path style="fill:#9ED368;" d="M0.001,256.006c0,141.395,114.606,255.998,255.996,255.994
	c141.398,0.004,256.004-114.598,256.004-255.994C512.009,114.61,397.395,0,255.996,0C114.606,0,0.001,114.614,0.001,256.006z"/>
<path style="fill:#8BC052;" d="M512.001,256.006c0-6.027-0.224-12.001-0.633-17.924c-0.505-0.483-159.721-158.506-159.875-158.686
	c-1.418-1.648-3.485-2.596-5.659-2.596h-32.667c-3.86,0-7.087,2.945-7.438,6.789l-5.042,55.555
	c-0.837,9.227-5.097,17.425-11.445,23.489c-2.428-2.583-84.011-82.416-84.577-82.833c-1.372-1.785-3.432-3.001-5.831-3.001h-32.667
	c-2.194,0-4.276,0.963-5.695,2.641s-2.031,3.886-1.67,6.052c0.157,0.955,15.561,95.987-12.148,133.239
	c-5.892,7.927-13.175,12.345-22.269,13.505c-2.001,0.255-3.813,1.312-5.027,2.93c-1.211,1.612-1.713,3.653-1.401,5.645
	c0.172,1.079,16.841,108.377,0.081,185.332c-0.482,2.21,0.062,4.513,1.479,6.271c0.335,0.417,26.444,27.454,29.51,30.389
	c14.086,13.486,27.174,28.041,41.878,40.838c20.784,5.446,42.595,8.357,65.089,8.357
	C397.395,512.004,512.001,397.402,512.001,256.006z"/>
<path style="fill:#F4F6F9;" d="M393.992,241.089c0.401-2.02-0.054-4.119-1.258-5.797c-1.199-1.669-3.04-2.778-5.086-3.047
	c-8.433-1.123-15.276-5.309-20.919-12.812c-27.712-36.83-13.658-133.088-13.511-134.058c0.324-2.151-0.306-4.332-1.725-5.979
	c-1.419-1.647-3.486-2.596-5.659-2.596h-32.667c-3.861,0-7.088,2.946-7.438,6.788l-5.042,55.555
	c-1.532,16.88-14.255,30.61-30.939,33.396l-13.748,2.289l-13.745-2.289c-16.687-2.785-29.411-16.515-30.942-33.396l-5.042-55.555
	c-0.35-3.843-3.577-6.788-7.438-6.788h-32.667c-2.195,0-4.276,0.962-5.695,2.64s-2.031,3.887-1.669,6.052
	c0.157,0.956,15.561,95.987-12.148,133.241c-5.891,7.926-13.177,12.345-22.269,13.504c-2.001,0.255-3.813,1.312-5.027,2.931
	c-1.211,1.612-1.713,3.653-1.401,5.644c0.172,1.079,16.841,108.377,0.08,185.332c-0.481,2.209,0.062,4.513,1.481,6.271
	c1.419,1.764,3.555,2.785,5.815,2.785h261.333c2.278,0,4.43-1.043,5.847-2.822c1.414-1.787,1.939-4.119,1.425-6.336
	C374.443,342.326,393.795,242.095,393.992,241.089z M377.414,420.267H134.438c12.337-67.55,2.672-150.23-0.704-174.759
	c9.858-2.873,18.214-8.86,24.912-17.872c26.411-35.524,19.472-110.286,16.144-135.902h17.222l4.426,48.767
	c2.147,23.632,19.979,42.867,43.363,46.769l14.974,2.494c0.81,0.131,1.641,0.131,2.45,0l14.977-2.494
	c23.38-3.901,41.213-23.136,43.36-46.769l4.427-48.767h17.35c-2.964,25.681-9.017,101.478,17.449,136.668
	c6.355,8.451,14.157,14.139,23.264,16.975C374.017,269.322,362.958,347.978,377.414,420.267z"/>
<g>
</g>
<g>
</g>
<g>
</g>
<g>
</g>
<g>
</g>
<g>
</g>
<g>
</g>
<g>
</g>
<g>
</g>
<g>
</g>
<g>
</g>
<g>
</g>
<g>
</g>
<g>
</g>
<g>
</g>
</svg>
