<?xml version="1.0" standalone="no"?><svg xmlns="http://www.w3.org/2000/svg" viewBox="0 0 1440 320"><path fill="#00cba9" fillOpacity="1" d="M0,0L20,53.3C40,107,80,213,120,245.3C160,277,200,235,240,202.7C280,171,320,149,360,165.3C400,181,440,235,480,250.7C520,267,560,245,600,218.7C640,192,680,160,720,160C760,160,800,192,840,170.7C880,149,920,75,960,90.7C1000,107,1040,213,1080,240C1120,267,1160,213,1200,186.7C1240,160,1280,160,1320,181.3C1360,203,1400,245,1420,266.7L1440,288L1440,0L1420,0C1400,0,1360,0,1320,0C1280,0,1240,0,1200,0C1160,0,1120,0,1080,0C1040,0,1000,0,960,0C920,0,880,0,840,0C800,0,760,0,720,0C680,0,640,0,600,0C560,0,520,0,480,0C440,0,400,0,360,0C320,0,280,0,240,0C200,0,160,0,120,0C80,0,40,0,20,0L0,0Z"></path></svg>