<svg xmlns="http://www.w3.org/2000/svg" viewBox="0 0 1440 320"><path fill="#00cba9" fillOpacity="1" d="M0,96L14.1,85.3C28.2,75,56,53,85,42.7C112.9,32,141,32,169,74.7C197.6,117,226,203,254,202.7C282.4,203,311,117,339,112C367.1,107,395,181,424,224C451.8,267,480,277,508,277.3C536.5,277,565,267,593,229.3C621.2,192,649,128,678,128C705.9,128,734,192,762,197.3C790.6,203,819,149,847,144C875.3,139,904,181,932,192C960,203,988,181,1016,165.3C1044.7,149,1073,139,1101,117.3C1129.4,96,1158,64,1186,48C1214.1,32,1242,32,1271,58.7C1298.8,85,1327,139,1355,181.3C1383.5,224,1412,256,1426,272L1440,288L1440,0L1425.9,0C1411.8,0,1384,0,1355,0C1327.1,0,1299,0,1271,0C1242.4,0,1214,0,1186,0C1157.6,0,1129,0,1101,0C1072.9,0,1045,0,1016,0C988.2,0,960,0,932,0C903.5,0,875,0,847,0C818.8,0,791,0,762,0C734.1,0,706,0,678,0C649.4,0,621,0,593,0C564.7,0,536,0,508,0C480,0,452,0,424,0C395.3,0,367,0,339,0C310.6,0,282,0,254,0C225.9,0,198,0,169,0C141.2,0,113,0,85,0C56.5,0,28,0,14,0L0,0Z"></path></svg>