<?xml version="1.0" standalone="no"?><svg xmlns="http://www.w3.org/2000/svg" viewBox="0 0 1440 320"><path fill="#00cba9" fill-opacity="1" d="M0,0L11.4,37.3C22.9,75,46,149,69,176C91.4,203,114,181,137,154.7C160,128,183,96,206,74.7C228.6,53,251,43,274,58.7C297.1,75,320,117,343,160C365.7,203,389,245,411,261.3C434.3,277,457,267,480,245.3C502.9,224,526,192,549,160C571.4,128,594,96,617,90.7C640,85,663,107,686,117.3C708.6,128,731,128,754,122.7C777.1,117,800,107,823,122.7C845.7,139,869,181,891,165.3C914.3,149,937,75,960,53.3C982.9,32,1006,64,1029,96C1051.4,128,1074,160,1097,160C1120,160,1143,128,1166,122.7C1188.6,117,1211,139,1234,138.7C1257.1,139,1280,117,1303,138.7C1325.7,160,1349,224,1371,240C1394.3,256,1417,224,1429,208L1440,192L1440,0L1428.6,0C1417.1,0,1394,0,1371,0C1348.6,0,1326,0,1303,0C1280,0,1257,0,1234,0C1211.4,0,1189,0,1166,0C1142.9,0,1120,0,1097,0C1074.3,0,1051,0,1029,0C1005.7,0,983,0,960,0C937.1,0,914,0,891,0C868.6,0,846,0,823,0C800,0,777,0,754,0C731.4,0,709,0,686,0C662.9,0,640,0,617,0C594.3,0,571,0,549,0C525.7,0,503,0,480,0C457.1,0,434,0,411,0C388.6,0,366,0,343,0C320,0,297,0,274,0C251.4,0,229,0,206,0C182.9,0,160,0,137,0C114.3,0,91,0,69,0C45.7,0,23,0,11,0L0,0Z"></path></svg>